<svg xmlns="http://www.w3.org/2000/svg" width="20" height="21" viewBox="0 0 20 21">
    <defs>
        <linearGradient id="a" x1="50%" x2="50%" y1="0%" y2="99.128%">
            <stop offset="0%" stop-color="#FFEE58"/>
            <stop offset="100%" stop-color="#F9A825"/>
        </linearGradient>
    </defs>
    <path fill="url(#a)" fill-rule="evenodd" d="M10.5 20.25a.75.75 0 1 1 0-1.5h11a.75.75 0 1 1 0 1.5h-11zm5.5-14c1.38 0 2.679.26 3.896.781A10.035 10.035 0 0 1 23.08 9.17a10.035 10.035 0 0 1 2.139 3.184A9.801 9.801 0 0 1 26 16.25c0 1.38-.26 2.679-.781 3.896a10.035 10.035 0 0 1-2.139 3.184 10.035 10.035 0 0 1-3.184 2.139A9.801 9.801 0 0 1 16 26.25c-1.38 0-2.679-.26-3.896-.781A10.035 10.035 0 0 1 8.92 23.33a10.035 10.035 0 0 1-2.139-3.184A9.801 9.801 0 0 1 6 16.25c0-1.38.26-2.679.781-3.896A10.035 10.035 0 0 1 8.92 9.17a10.035 10.035 0 0 1 3.184-2.139A9.801 9.801 0 0 1 16 6.25zM16 25a8.44 8.44 0 0 0 3.408-.693 8.914 8.914 0 0 0 2.774-1.875 8.914 8.914 0 0 0 1.875-2.774 8.44 8.44 0 0 0 .693-3.408 8.44 8.44 0 0 0-.693-3.408 8.914 8.914 0 0 0-1.875-2.774 8.914 8.914 0 0 0-2.774-1.875A8.44 8.44 0 0 0 16 7.5a8.44 8.44 0 0 0-3.408.693 8.914 8.914 0 0 0-2.774 1.875 8.914 8.914 0 0 0-1.875 2.774 8.44 8.44 0 0 0-.693 3.408c0 1.21.231 2.347.693 3.408a8.914 8.914 0 0 0 1.875 2.774 8.914 8.914 0 0 0 2.774 1.875A8.44 8.44 0 0 0 16 25zm-3.125-9.375c-.352 0-.648-.124-.889-.371a1.217 1.217 0 0 1-.361-.879c0-.339.12-.632.361-.879s.537-.371.889-.371c.339 0 .628.124.87.371.24.247.36.54.36.879 0 .339-.12.632-.36.879a1.17 1.17 0 0 1-.87.371zm6.25 0c-.352 0-.648-.124-.889-.371a1.217 1.217 0 0 1-.361-.879c0-.339.12-.632.361-.879s.537-.371.889-.371c.339 0 .628.124.87.371.24.247.36.54.36.879 0 .339-.12.632-.36.879a1.17 1.17 0 0 1-.87.371z" transform="translate(-6 -6)"/>
</svg>
