<svg xmlns="http://www.w3.org/2000/svg" xmlns:xlink="http://www.w3.org/1999/xlink" width="20" height="20" viewBox="0 0 20 20">
    <defs>
        <linearGradient id="b" x1="50%" x2="50%" y1="10.487%" y2="91.703%">
            <stop offset="0%" stop-color="#81C784"/>
            <stop offset="100%" stop-color="#388E3C"/>
        </linearGradient>
        <path id="a" d="M17.254 13.855a.672.672 0 0 1 .332.352.54.54 0 0 1-.02.469c-.013.039-.123.247-.332.625-.208.377-.537.784-.986 1.22-.45.437-1.025.837-1.728 1.202-.704.364-1.556.547-2.56.547a.087.087 0 0 0-.038.01.087.087 0 0 1-.04.01c-.95 0-1.767-.183-2.45-.548-.684-.364-1.247-.765-1.69-1.201-.443-.436-.771-.846-.986-1.23-.215-.385-.329-.59-.342-.616a.613.613 0 0 1-.03-.488.623.623 0 0 1 .343-.352.63.63 0 0 1 .82.313c.013.026.107.192.283.498s.44.632.791.977c.352.345.798.664 1.338.957.54.293 1.188.44 1.943.44l.02-.01a.087.087 0 0 1 .039-.01c.794 0 1.475-.15 2.041-.45.566-.3 1.029-.625 1.387-.976.358-.352.621-.674.79-.967a5.69 5.69 0 0 0 .255-.459.559.559 0 0 1 .341-.322.64.64 0 0 1 .479.01zM12 2c1.38 0 2.679.26 3.896.781A10.035 10.035 0 0 1 19.08 4.92a10.035 10.035 0 0 1 2.139 3.184A9.801 9.801 0 0 1 22 12c0 1.38-.26 2.679-.781 3.896a10.035 10.035 0 0 1-2.139 3.184 10.035 10.035 0 0 1-3.184 2.139A9.801 9.801 0 0 1 12 22c-1.38 0-2.679-.26-3.896-.781A10.035 10.035 0 0 1 4.92 19.08a10.035 10.035 0 0 1-2.139-3.184A9.801 9.801 0 0 1 2 12c0-1.38.26-2.679.781-3.896A10.035 10.035 0 0 1 4.92 4.92 10.035 10.035 0 0 1 8.104 2.78 9.801 9.801 0 0 1 12 2zm0 18.75a8.44 8.44 0 0 0 3.408-.693 8.914 8.914 0 0 0 2.774-1.875 8.914 8.914 0 0 0 1.875-2.774A8.44 8.44 0 0 0 20.75 12a8.44 8.44 0 0 0-.693-3.408 8.914 8.914 0 0 0-1.875-2.774 8.914 8.914 0 0 0-2.774-1.875A8.44 8.44 0 0 0 12 3.25a8.44 8.44 0 0 0-3.408.693 8.914 8.914 0 0 0-2.774 1.875 8.914 8.914 0 0 0-1.875 2.774A8.44 8.44 0 0 0 3.25 12c0 1.21.231 2.347.693 3.408a8.914 8.914 0 0 0 1.875 2.774 8.914 8.914 0 0 0 2.774 1.875A8.44 8.44 0 0 0 12 20.75zm-3.125-9.375c-.352 0-.648-.124-.889-.371a1.217 1.217 0 0 1-.361-.879c0-.339.12-.632.361-.879s.537-.371.889-.371c.339 0 .628.124.87.371.24.247.36.54.36.879 0 .339-.12.632-.36.879a1.17 1.17 0 0 1-.87.371zm6.25 0c-.352 0-.648-.124-.889-.371a1.217 1.217 0 0 1-.361-.879c0-.339.12-.632.361-.879s.537-.371.889-.371c.339 0 .628.124.87.371.24.247.36.54.36.879 0 .339-.12.632-.36.879a1.17 1.17 0 0 1-.87.371z"/>
    </defs>
    <g fill="none" fill-rule="evenodd" transform="translate(-2 -2)">
        <use fill="#FBFBFB" xlink:href="#a"/>
        <use fill="url(#b)" xlink:href="#a"/>
    </g>
</svg>
