<svg xmlns="http://www.w3.org/2000/svg" xmlns:xlink="http://www.w3.org/1999/xlink" width="20" height="21" viewBox="0 0 20 21">
    <defs>
        <linearGradient id="b" x1="50%" x2="50%" y1="95.185%" y2="0%">
            <stop offset="0%" stop-color="#F44336"/>
            <stop offset="100%" stop-color="#E57373"/>
        </linearGradient>
        <path id="a" d="M21.254 21.488a.672.672 0 0 0 .332-.352.54.54 0 0 0-.02-.469c-.013-.039-.123-.247-.332-.625-.208-.377-.537-.784-.986-1.22-.45-.437-1.025-.837-1.728-1.202-.704-.364-1.556-.546-2.56-.546a.087.087 0 0 1-.038-.01.087.087 0 0 0-.04-.01c-.95 0-1.767.182-2.45.547-.684.365-1.247.765-1.69 1.201-.443.436-.771.846-.986 1.23-.215.385-.329.59-.342.616a.613.613 0 0 0-.03.488.623.623 0 0 0 .343.352.63.63 0 0 0 .82-.313c.013-.026.107-.192.283-.498s.44-.631.791-.976a5.936 5.936 0 0 1 1.338-.957c.54-.293 1.188-.44 1.943-.44l.02.01c.013.006.026.01.039.01.794 0 1.475.15 2.041.449.566.3 1.029.625 1.387.976.358.352.621.674.79.967.17.293.255.446.255.46a.559.559 0 0 0 .341.321.64.64 0 0 0 .479-.01zM16 6.25c1.38 0 2.679.26 3.896.781A10.035 10.035 0 0 1 23.08 9.17a10.035 10.035 0 0 1 2.139 3.184A9.801 9.801 0 0 1 26 16.25c0 1.38-.26 2.679-.781 3.896a10.035 10.035 0 0 1-2.139 3.184 10.035 10.035 0 0 1-3.184 2.139A9.801 9.801 0 0 1 16 26.25c-1.38 0-2.679-.26-3.896-.781A10.035 10.035 0 0 1 8.92 23.33a10.035 10.035 0 0 1-2.139-3.184A9.801 9.801 0 0 1 6 16.25c0-1.38.26-2.679.781-3.896A10.035 10.035 0 0 1 8.92 9.17a10.035 10.035 0 0 1 3.184-2.139A9.801 9.801 0 0 1 16 6.25zM16 25a8.44 8.44 0 0 0 3.408-.693 8.914 8.914 0 0 0 2.774-1.875 8.914 8.914 0 0 0 1.875-2.774 8.44 8.44 0 0 0 .693-3.408 8.44 8.44 0 0 0-.693-3.408 8.914 8.914 0 0 0-1.875-2.774 8.914 8.914 0 0 0-2.774-1.875A8.44 8.44 0 0 0 16 7.5a8.44 8.44 0 0 0-3.408.693 8.914 8.914 0 0 0-2.774 1.875 8.914 8.914 0 0 0-1.875 2.774 8.44 8.44 0 0 0-.693 3.408c0 1.21.231 2.347.693 3.408a8.914 8.914 0 0 0 1.875 2.774 8.914 8.914 0 0 0 2.774 1.875A8.44 8.44 0 0 0 16 25zm-3.125-9.375c-.352 0-.648-.124-.889-.371a1.217 1.217 0 0 1-.361-.879c0-.339.12-.632.361-.879s.537-.371.889-.371c.339 0 .628.124.87.371.24.247.36.54.36.879 0 .339-.12.632-.36.879a1.17 1.17 0 0 1-.87.371zm6.25 0c-.352 0-.648-.124-.889-.371a1.217 1.217 0 0 1-.361-.879c0-.339.12-.632.361-.879s.537-.371.889-.371c.339 0 .628.124.87.371.24.247.36.54.36.879 0 .339-.12.632-.36.879a1.17 1.17 0 0 1-.87.371z"/>
    </defs>
    <g fill="none" fill-rule="evenodd" transform="translate(-6 -6)">
        <use fill="#FBFBFB" xlink:href="#a"/>
        <use fill="url(#b)" xlink:href="#a"/>
    </g>
</svg>
