<svg xmlns="http://www.w3.org/2000/svg" width="31.657" height="29.781" viewBox="0 0 31.657 29.781">
  <metadata><?xpacket begin="﻿" id="W5M0MpCehiHzreSzNTczkc9d"?>
<x:xmpmeta xmlns:x="adobe:ns:meta/" x:xmptk="Adobe XMP Core 5.6-c138 79.159824, 2016/09/14-01:09:01        ">
   <rdf:RDF xmlns:rdf="http://www.w3.org/1999/02/22-rdf-syntax-ns#">
      <rdf:Description rdf:about=""/>
   </rdf:RDF>
</x:xmpmeta>
                                                                                                    
                                                                                                    
                                                                                                    
                                                                                                    
                                                                                                    
                                                                                                    
                                                                                                    
                                                                                                    
                                                                                                    
                                                                                                    
                                                                                                    
                                                                                                    
                                                                                                    
                                                                                                    
                                                                                                    
                                                                                                    
                                                                                                    
                                                                                                    
                                                                                                    
                                                                                                    
                           
<?xpacket end="w"?></metadata>
<defs>
    <style>
      .cls-1 {
        fill: #283c45;
        fill-rule: evenodd;
      }
    </style>
  </defs>
  <path id="Shape_387_copy" data-name="Shape 387 copy" class="cls-1" d="M709.9,410v2.127h2.112a0.986,0.986,0,0,0,.338.748,1.13,1.13,0,0,0,.8.316h25.175a1.132,1.132,0,0,0,.8-0.316,0.99,0.99,0,0,0,.338-0.748h2.112V410l-15.838-6.38Zm4.223,17.016H713.15a1.13,1.13,0,0,0-.8.316,0.986,0.986,0,0,0-.338.747v1.064h27.451v-1.064a0.989,0.989,0,0,0-.338-0.747,1.132,1.132,0,0,0-.8-0.316h-0.973V414.253h-4.224v12.762h-2.111V414.253h-4.224v12.762h-2.111V414.253h-4.224v12.762h-2.111V414.253h-4.224v12.762Zm-3.085,3.19a1.135,1.135,0,0,0-.8.316,0.991,0.991,0,0,0-.338.748V433.4h31.675v-2.127a0.991,0.991,0,0,0-.338-0.748,1.138,1.138,0,0,0-.8-0.316h-29.4Z" transform="translate(-709.906 -403.625)"/>
</svg>
