<svg height='200' width='200'  fill="#ffffff" xmlns:dc="http://purl.org/dc/elements/1.1/" xmlns:cc="http://creativecommons.org/ns#" xmlns:rdf="http://www.w3.org/1999/02/22-rdf-syntax-ns#" xmlns:svg="http://www.w3.org/2000/svg" xmlns="http://www.w3.org/2000/svg" xmlns:sodipodi="http://sodipodi.sourceforge.net/DTD/sodipodi-0.dtd" xmlns:inkscape="http://www.inkscape.org/namespaces/inkscape" viewBox="0 0 100 100" version="1.1" x="0px" y="0px"><g transform="translate(0,-952.3622)"><path style="color:#000000;font-style:normal;font-variant:normal;font-weight:normal;font-stretch:normal;font-size:medium;line-height:normal;font-family:sans-serif;text-indent:0;text-align:start;text-decoration:none;text-decoration-line:none;text-decoration-style:solid;text-decoration-color:#000000;letter-spacing:normal;word-spacing:normal;text-transform:none;direction:ltr;block-progression:tb;writing-mode:lr-tb;baseline-shift:baseline;text-anchor:start;white-space:normal;clip-rule:nonzero;display:inline;overflow:visible;visibility:visible;opacity:1;isolation:auto;mix-blend-mode:normal;color-interpolation:sRGB;color-interpolation-filters:linearRGB;solid-color:#000000;solid-opacity:1;fill:#ffffff;fill-opacity:1;fill-rule:nonzero;stroke:none;stroke-width:1.5;stroke-linecap:round;stroke-linejoin:round;stroke-miterlimit:4;stroke-dasharray:none;stroke-dashoffset:0;stroke-opacity:1;color-rendering:auto;image-rendering:auto;shape-rendering:auto;text-rendering:auto;enable-background:accumulate" d="m 15.110586,975.08476 c -0.257006,-0.002 -0.504219,0.0953 -0.703273,0.25787 -0.006,0.005 -0.01173,0.01 -0.01758,0.0146 C 14.081843,975.61353 14,976.0086 14,976.40921 l 0,34.68309 c 6.2e-5,0.6214 0.503812,1.1252 1.125238,1.1252 l 33.801091,0 c 0.586855,9.7104 8.643142,17.4324 18.499029,17.4324 10.236196,0 18.563961,-8.3214 18.560564,-18.5576 -0.0038,-11.46304 0,-23.15284 0,-34.69188 0.108908,-0.68861 -0.428123,-1.30955 -1.125238,-1.30106 -23.244908,-0.0987 -46.520649,0.13928 -69.750098,-0.0147 z m 1.13989,2.26513 67.48497,0 0,24.88711 c -3.148794,-5.77624 -9.278806,-9.70224 -16.310088,-9.70224 -9.856473,0 -17.913031,7.72134 -18.499029,17.43244 l -32.675853,0 z m 4.688491,3.56032 c -1.521671,-0.0215 -1.521671,2.27195 0,2.25045 l 58.107988,0 c 1.521671,0.021 1.521671,-2.27196 0,-2.25045 z m 0,5.81075 c -1.521685,-0.021 -1.521685,2.272 0,2.2505 l 34.864793,0 c 1.521685,0.022 1.521685,-2.272 0,-2.2505 z m 0,5.8138 c -1.521685,-0.022 -1.521685,2.272 0,2.2505 l 23.243195,0 c 1.521685,0.022 1.521685,-2.272 0,-2.2505 z m 46.486391,2.2505 c 9.019955,0 16.310088,7.28724 16.310088,16.30714 0,9.0199 -7.290133,16.3072 -16.310088,16.3072 -8.975385,0 -16.229774,-7.2172 -16.301299,-16.1753 0.0111,-0.091 0.0111,-0.182 0,-0.2725 0.07611,-8.9542 7.328795,-16.16654 16.301299,-16.16654 z m -3.680465,7.62754 c -0.308097,0 -0.60466,0.1171 -0.820486,0.337 l -7.396096,7.5544 c -1.085709,1.0727 0.560251,2.6827 1.608739,1.5735 l 6.279648,-6.4144 6.695751,13.6787 c 0.341166,0.6998 1.272887,0.8501 1.816791,0.293 l 5.465022,-5.5852 0,4.7969 c -0.0215,1.5217 2.271979,1.5217 2.250476,0 0,-2.5337 0.0129,-5.0675 0,-7.6013 -0.0032,-0.617 -0.525844,-1.1059 -1.14282,-1.0959 -2.439444,0.04 -4.923978,0.031 -7.378513,0.018 -1.521798,-0.01 -1.521669,2.272 0,2.2504 l 4.720725,0 -4.410112,4.5039 -6.695752,-13.6786 c -0.186276,-0.3801 -0.57011,-0.6235 -0.993373,-0.63 z m -42.805926,1.7436 c -1.521685,-0.021 -1.521685,2.272 0,2.2505 l 11.621597,0 c 1.521685,0.021 1.521685,-2.272 0,-2.2505 z"></path></g></svg>