<svg xmlns="http://www.w3.org/2000/svg" width="31.657" height="29.781" viewBox="0 0 31.657 29.781"><defs><style>.cls-1{fill:#283c45;fill-rule:evenodd}</style></defs><path id="Shape_387_copy" data-name="Shape 387 copy" class="cls-1" d="M709.9 410v2.127h2.112a.986.986 0 0 0 .338.748 1.13 1.13 0 0 0 .8.316h25.175a1.132 1.132 0 0 0 .8-.316.99.99 0 0 0 .338-.748h2.112V410l-15.838-6.38zm4.223 17.016h-.973a1.13 1.13 0 0 0-.8.316.986.986 0 0 0-.338.747v1.064h27.451v-1.064a.989.989 0 0 0-.338-.747 1.132 1.132 0 0 0-.8-.316h-.973v-12.763h-4.224v12.762h-2.111v-12.762h-4.224v12.762h-2.111v-12.762h-4.224v12.762h-2.111v-12.762h-4.224v12.762zm-3.085 3.19a1.135 1.135 0 0 0-.8.316.991.991 0 0 0-.338.748v2.13h31.675v-2.127a.991.991 0 0 0-.338-.748 1.138 1.138 0 0 0-.8-.316h-29.4z" transform="translate(-709.906 -403.625)"/></svg>